<?xml version="1.0" encoding="utf-8"?>
<!-- Generator: Adobe Illustrator 17.1.0, SVG Export Plug-In . SVG Version: 6.00 Build 0)  -->
<!DOCTYPE svg PUBLIC "-//W3C//DTD SVG 1.1//EN" "http://www.w3.org/Graphics/SVG/1.1/DTD/svg11.dtd">
<svg version="1.1" id="Ebene_1" xmlns="http://www.w3.org/2000/svg" xmlns:xlink="http://www.w3.org/1999/xlink" x="0px" y="0px"
	 viewBox="0 0 507 507" width="35px" height="35px" enable-background="new 0 0 507 507" xml:space="preserve">
<g>
	<path fill="#FFFFFF" d="M432.8,74.2C384.9,26.4,321.2,0,253.5,0C185.8,0,122.1,26.4,74.2,74.2C26.4,122.1,0,185.8,0,253.5
		s26.4,131.4,74.2,179.3c47.9,47.9,111.5,74.2,179.3,74.2s131.4-26.4,179.3-74.2S507,321.2,507,253.5
		C507,185.8,480.6,122.1,432.8,74.2z M253.5,486c-62.1,0-120.5-24.2-164.4-68.1C45.2,374,21,315.6,21,253.5
		C21,191.4,45.2,133,89.1,89.1S191.4,21,253.5,21c62.1,0,120.5,24.2,164.4,68.1C461.8,133,486,191.4,486,253.5
		c0,62.1-24.2,120.5-68.1,164.4C374,461.8,315.6,486,253.5,486z"/>
	<polygon fill="#FFFFFF" points="203.3,144.4 317.8,259 210.8,366 225.6,380.9 347.5,259 218.1,129.6 	"/>
</g>
</svg>
