<svg xmlns="http://www.w3.org/2000/svg" width="26" height="20" viewBox="0 0 26 20">
    <path fill="#004756" fill-rule="evenodd" d="M17.56.875l7.227 7.588c.434.433.65.988.65 1.662 0 .626-.216 1.156-.65 1.59l-7.226 7.66a2.12 2.12 0 0 1-1.554.65 2.12 2.12 0 0 1-1.554-.65c-.433-.434-.65-.988-.65-1.662 0-.675.217-1.229.65-1.662l3.469-3.613H2.24a2.106 2.106 0 0 1-1.59-.687c-.433-.458-.65-1-.65-1.626 0-.626.217-1.168.65-1.626a2.106 2.106 0 0 1 1.59-.687h15.682L14.38 4.2c-.434-.433-.65-.987-.65-1.662 0-.674.216-1.228.65-1.662.433-.434.963-.65 1.59-.65.626 0 1.156.216 1.59.65z"/>
</svg>
