<svg xmlns="http://www.w3.org/2000/svg" width="25" height="25" viewBox="0 0 25 25">
    <g fill="none" fill-rule="evenodd">
        <circle cx="12.5" cy="12.5" r="12.5" fill="#004756"/>
        <path fill="#FFF" d="M12.148 16.36l-2.285-2.286a.504.504 0 0 1 0-.71.468.468 0 0 1 .352-.154.53.53 0 0 1 .366.146l1.421 1.421V6.325c0-.146.049-.268.146-.366a.504.504 0 0 1 .71 0c.103.098.155.22.155.366v8.452l1.42-1.406a.459.459 0 0 1 .352-.161c.137 0 .257.051.359.154a.492.492 0 0 1 .154.359.459.459 0 0 1-.161.351l-2.285 2.285a.48.48 0 0 1-.352.147.48.48 0 0 1-.352-.147zm6.753-1.956a.504.504 0 0 1 .147.359v3.266a.884.884 0 0 1-.264.638.865.865 0 0 1-.644.27H6.83a.877.877 0 0 1-.644-.263.877.877 0 0 1-.264-.645v-3.266c0-.137.049-.257.146-.36a.476.476 0 0 1 .36-.153c.14 0 .26.051.358.154a.504.504 0 0 1 .147.359v2.856a.298.298 0 0 0 .307.308H17.73a.298.298 0 0 0 .308-.308v-2.856c0-.137.049-.257.147-.36a.476.476 0 0 1 .358-.153c.142 0 .262.051.36.154z"/>
    </g>
</svg>
