<svg xmlns="http://www.w3.org/2000/svg" width="15" height="15" viewBox="0 0 15 15">
    <path fill="#004756" fill-rule="evenodd" d="M7.5 7.5c-1.042 0-1.927-.365-2.656-1.094-.73-.729-1.094-1.614-1.094-2.656s.365-1.927 1.094-2.656C5.573.364 6.458 0 7.5 0s1.927.365 2.656 1.094c.73.729 1.094 1.614 1.094 2.656s-.365 1.927-1.094 2.656C9.427 7.136 8.542 7.5 7.5 7.5zm0 1.875c1.563 0 3.203.345 4.922 1.035C14.14 11.1 15 12.005 15 13.125V15H0v-1.875c0-1.12.86-2.025 2.578-2.715 1.719-.69 3.36-1.035 4.922-1.035z"/>
</svg>
