<svg xmlns="http://www.w3.org/2000/svg" width="16" height="15" viewBox="0 0 16 15">
    <path fill="#004756" fill-rule="evenodd" d="M15.065 12.617c.182.182.182.365 0 .547l-1.68 1.719a.422.422 0 0 1-.313.117.375.375 0 0 1-.273-.117l-3.281-3.36c-.99.6-2.031.899-3.125.899-1.693 0-3.151-.606-4.375-1.817C.794 9.395.182 7.93.182 6.211c0-1.719.612-3.184 1.836-4.395C3.242.606 4.7 0 6.393 0c1.692 0 3.144.605 4.355 1.816 1.211 1.211 1.817 2.676 1.817 4.395 0 1.094-.274 2.11-.82 3.047l3.32 3.36zM6.393 2.422c-1.042 0-1.934.371-2.676 1.113-.742.742-1.113 1.634-1.113 2.676 0 1.042.37 1.934 1.113 2.676C4.459 9.629 5.351 10 6.393 10a3.585 3.585 0 0 0 2.656-1.113 3.681 3.681 0 0 0 1.094-2.676 3.681 3.681 0 0 0-1.094-2.676 3.585 3.585 0 0 0-2.656-1.113z"/>
</svg>
